# xmcd
#
# Track frame offsets: 
#        150
#        14344
#        34019
#        47519
#        61711
#        72944
#        93332
#        110627
#        131397
#        149724
#        174837
#        182114
#        195982
#        216667
#
# Disc length: 3064 seconds
#
# Revision: 0
# Processed by: cddbd v1.5.1PL2 Copyright (c) Steve Scherf et al.
# Submitted via: ExactAudioCopy v0.95b3
#
DISCID=c50bf60e
DTITLE=Mat with Iano - Mountain Men
DYEAR=2005
DGENRE=Blues
TTITLE0=Daddy
TTITLE1=Kind hearted woman
TTITLE2=Washington d.c. hospital Blues
TTITLE3=Walking Blues
TTITLE4=Just your fool
TTITLE5=Desperado
TTITLE6=Mrs Dee
TTITLE7=Ce que Diddy veut dire? (live)
TTITLE8=Malted milk
TTITLE9=Nothing else matters
TTITLE10=It's allright
TTITLE11=Me and the devil Blues
TTITLE12=Cypress grove (live)
TTITLE13=Down and out
EXTD=
EXTT0=
EXTT1=
EXTT2=
EXTT3=
EXTT4=
EXTT5=
EXTT6=
EXTT7=
EXTT8=
EXTT9=
EXTT10=
EXTT11=
EXTT12=
EXTT13=
PLAYORDER=
